# xmcd CD database file
#
# Track frame offsets:
#	182
#	12042
#	23540
#	37537
#	50940
#	65320
#	80882
#	100455
#	116050
#	129745
#	141492
#	160195
#	179245
#	194475
#	211995
#	224247
#	247355
#	264072
#	281110
#	300045
#
# Disc length: 4284 seconds
#
# Revision: 3
# Processed by: cddbd v1.5.2PL0 Copyright (c) Steve Scherf et al.
# Submitted via: CDex 1.81
#
DISCID=3210ba14
DTITLE=Jerry Jeff Walker - Gypsy Songman
DYEAR=1987
DGENRE=Country
TTITLE0=Gypsy Songman
TTITLE1=Pass it On
TTITLE2=Got Lucky Last Night
TTITLE3=Railroad Lady
TTITLE4=Jaded Lover
TTITLE5=Long Afternoons
TTITLE6=Night Rider's Lament
TTITLE7=Cadillac Cowboy
TTITLE8=Charlie Dunn
TTITLE9=Driftin' Way of Life
TTITLE10=David and Me
TTITLE11=Mr. Bojangles
TTITLE12=Layin' My Life on the Line
TTITLE13=Hands on the Wheel
TTITLE14=Borderline
TTITLE15=My Old Man
TTITLE16=Then Came the Children
TTITLE17=Django's Lullaby
TTITLE18=She Knows Her Daddy Sings
TTITLE19=Hill Country Rain
EXTD=YEAR: 1987
EXTT0=
EXTT1=
EXTT2=
EXTT3=
EXTT4=
EXTT5=
EXTT6=
EXTT7=
EXTT8=
EXTT9=
EXTT10=
EXTT11=
EXTT12=
EXTT13=
EXTT14=
EXTT15=
EXTT16=
EXTT17=
EXTT18=
EXTT19=
PLAYORDER=
